<svg id="regular" enable-background="new 0 0 24 24" height="512" viewBox="0 0 24 24" width="512" xmlns="http://www.w3.org/2000/svg"><path d="m23.138 8.827-8.122-.027-2.293-8.25c-.09-.325-.386-.55-.723-.55s-.633.225-.723.549l-2.293 8.251-8.237.028c-.325.001-.613.212-.712.523s.015.649.28.838l6.396 4.546-2.76 8.277c-.225.679.54 1.257 1.127.862l6.936-4.614 6.906 4.613c.59.392 1.354-.179 1.129-.861l-2.76-8.278 6.326-4.505c.716-.404.359-1.52-.477-1.402zm-7.171 5.008c-.268.191-.38.535-.276.848l2.243 6.728-5.502-3.675c-.254-.169-.582-.169-.832-.001l-5.535 3.682 2.245-6.733c.104-.313-.009-.657-.277-.849l-4.945-3.515 6.47-.022c.336-.001.63-.226.72-.549l1.722-6.198 1.723 6.198c.09.324.384.548.72.549l6.461.022z"/></svg>