<?xml version="1.0" encoding="iso-8859-1"?>
<!-- Generator: Adobe Illustrator 19.0.0, SVG Export Plug-In . SVG Version: 6.00 Build 0)  -->
<svg version="1.1" id="Capa_1" xmlns="http://www.w3.org/2000/svg" xmlns:xlink="http://www.w3.org/1999/xlink" x="0px" y="0px"
	 viewBox="0 0 512 512" style="enable-background:new 0 0 512 512;" xml:space="preserve">
<g>
	<g>
		<path d="M203.035,131.345c-1.861-1.862-4.443-2.932-7.075-2.932s-5.213,1.071-7.075,2.932c-1.861,1.861-2.932,4.443-2.932,7.075
			s1.071,5.213,2.932,7.074c1.861,1.871,4.443,2.933,7.075,2.933s5.213-1.061,7.075-2.933c1.861-1.86,2.932-4.442,2.932-7.074
			S204.896,133.208,203.035,131.345z"/>
	</g>
</g>
<g>
	<g>
		<path d="M476.125,501.375l-8.422-135.755c-0.327-5.276-4.702-9.387-9.987-9.387H430.28c-4.574,0-8.567,3.102-9.696,7.536
			l-14.538,57.064c-6.021,23.63-27.257,40.134-51.643,40.134H228.368c-12.353,0-22.402-10.05-22.402-22.403V283.852h95.612
			c12.26,0,22.791,8.747,25.04,20.799l8.602,46.08c0.884,4.736,5.018,8.17,9.836,8.17h30.687c5.527,0,10.007-4.481,10.007-10.007
			V163.106c0-5.526-4.48-10.006-10.007-10.006h-30.687c-4.818,0-8.953,3.434-9.836,8.17l-8.602,46.08
			c-2.25,12.052-12.781,20.799-25.041,20.799h-95.611v-45.634c0-5.526-4.48-10.007-10.007-10.007s-10.007,4.481-10.007,10.007v55.64
			c0,5.526,4.48,10.007,10.007,10.007h105.619c21.891,0,40.696-15.619,44.713-37.139l7.077-37.91h12.368v165.775h-12.368
			l-7.077-37.91c-4.017-21.52-22.822-37.139-44.713-37.139H195.96c-5.527,0-10.006,4.481-10.006,10.006v164.719
			c0,23.388,19.027,42.416,42.415,42.416h126.034c33.543,0,62.755-22.702,71.036-55.207l12.618-49.528h10.253l7.18,115.743H55.869
			v-5.458l25.89-5.131c27.904-5.532,48.158-30.194,48.158-58.641V89.243c0-28.448-20.253-53.111-48.158-58.641l-25.89-5.131v-5.458
			H455.49l-7.181,115.742h-10.253l-12.618-49.528c-8.282-32.505-37.493-55.207-71.036-55.207H228.368
			c-23.387,0-42.415,19.027-42.415,42.415v20.293c0,5.526,4.48,10.007,10.006,10.007c5.527,0,10.007-4.481,10.007-10.007V73.435
			c0-12.352,10.05-22.402,22.402-22.402h126.034c24.385,0,45.622,16.504,51.643,40.135l14.538,57.064
			c1.129,4.433,5.121,7.536,9.696,7.536h27.434c5.285,0,9.66-4.112,9.987-9.387l8.422-135.755c0.171-2.756-0.804-5.462-2.696-7.473
			C471.536,1.142,468.898,0,466.136,0H45.863c-5.527,0-10.007,4.481-10.007,10.007v23.682c0,4.777,3.376,8.887,8.061,9.816
			l33.95,6.729c18.563,3.678,32.037,20.084,32.037,39.008v333.514c0,18.924-13.474,35.329-32.037,39.008l-33.95,6.729
			c-4.685,0.93-8.061,5.04-8.061,9.816v23.682c0,5.526,4.48,10.006,10.007,10.006h420.273c2.762,0,5.401-1.14,7.293-3.152
			C475.32,506.836,476.296,504.131,476.125,501.375z"/>
	</g>
</g>
<g>
	<g>
		<path d="M160.271,286.186c-5.527,0-10.006,4.481-10.006,10.007v81.553c0,5.526,4.48,10.006,10.006,10.006
			c5.527,0,10.007-4.481,10.007-10.006v-81.553C170.278,290.667,165.798,286.186,160.271,286.186z"/>
	</g>
</g>
<g>
	<g>
		<path d="M160.271,413.151c-5.527,0-10.006,4.481-10.006,10.007v0.118c0,5.526,4.48,10.007,10.006,10.007
			c5.527,0,10.007-4.481,10.007-10.007v-0.118C170.278,417.632,165.798,413.151,160.271,413.151z"/>
	</g>
</g>
<g>
</g>
<g>
</g>
<g>
</g>
<g>
</g>
<g>
</g>
<g>
</g>
<g>
</g>
<g>
</g>
<g>
</g>
<g>
</g>
<g>
</g>
<g>
</g>
<g>
</g>
<g>
</g>
<g>
</g>
</svg>
